<?xml version="1.0" encoding="UTF-8" standalone="no"?>
<svg width="43" height="40" viewBox="0 0 43 40" fill="none" xmlns="http://www.w3.org/2000/svg">
  <path d="M31.6842 0.84742C29.5619 0.844903 27.4817 1.48116 25.681 2.6836C23.8802 3.88603 22.4315 5.6062 21.5 7.64782C20.5685 5.6062 19.1198 3.88603 17.319 2.6836C15.5183 1.48116 13.4381 0.844903 11.3158 0.84742C5.0662 0.84742 0 6.24928 0 12.9134C0 28.5992 21.5 39.4587 21.5 39.4587C21.5 39.4587 43 28.5992 43 12.9134C43 6.24928 37.9338 0.84742 31.6842 0.84742Z" fill="#2A75E6"/>
  <path d="M1.51917 20.153C6.42073 31.8422 21.5 39.4586 21.5 39.4586C21.5 39.4586 36.5793 31.8422 41.4809 20.153H1.51917Z" fill="#F9D549"/>
</svg>
