<?xml version="1.0" ?><svg id="Layer_1" style="enable-background:new 0 0 128 128;" version="1.1" viewBox="0 0 128 128" xml:space="preserve" xmlns="http://www.w3.org/2000/svg" xmlns:xlink="http://www.w3.org/1999/xlink"><style type="text/css">
	.st0{fill:#F1F2F4;}
	.st1{fill:#464C54;}
	.st2{fill:#C9C9C9;}
	.st3{fill:#F6CA47;}
	.st4{fill:#BFCC58;}
	.st5{fill:#FFFFFF;}
	.st6{fill:#627148;}
	.st7{fill:#0076B9;}
	.st8{fill:#00A6E4;}
	.st9{fill:none;stroke:#FFFFFF;stroke-width:6;stroke-linecap:round;stroke-linejoin:round;stroke-miterlimit:10;}
	.st10{fill:#464C54;stroke:#464C54;stroke-width:6;stroke-linecap:round;stroke-linejoin:round;stroke-miterlimit:10;}
	.st11{fill:#E8E8E8;}
	.st12{fill:#D65B36;}
	.st13{fill:#D65B4D;}
	.st14{fill:none;stroke:#464C54;stroke-width:6;stroke-linecap:round;stroke-linejoin:round;stroke-miterlimit:10;}
</style><g><path class="st5" d="M104.29,58.17l-30-18c-6.33-3.8-14.25-3.8-20.58,0l-30,18C17.69,61.79,14,68.3,14,75.32V124h100V75.32   C114,68.3,110.31,61.79,104.29,58.17z"/></g><path class="st1" d="M124,121h-7V75.32c0-8.03-4.28-15.59-11.17-19.72l-30-18c-7.3-4.38-16.37-4.38-23.67,0l-30,18  C15.28,59.73,11,67.29,11,75.32V121H4c-1.66,0-3,1.34-3,3s1.34,3,3,3h120c1.66,0,3-1.34,3-3S125.66,121,124,121z M17,75.32  c0-5.94,3.16-11.52,8.25-14.58l30-18c5.39-3.24,12.1-3.24,17.49,0l30,18c5.09,3.05,8.25,8.64,8.25,14.58V121H17V75.32z"/><g><path class="st13" d="M78,84h-8v-8c0-1.66-1.34-3-3-3h-6c-1.66,0-3,1.34-3,3v8h-8c-1.66,0-3,1.34-3,3v6c0,1.66,1.34,3,3,3h8v8   c0,1.66,1.34,3,3,3h6c1.66,0,3-1.34,3-3v-8h8c1.66,0,3-1.34,3-3v-6C81,85.34,79.66,84,78,84z"/></g></svg>