<?xml version="1.0" ?><svg id="Layer_1" style="enable-background:new 0 0 128 128;" version="1.1" viewBox="0 0 128 128" xml:space="preserve" xmlns="http://www.w3.org/2000/svg" xmlns:xlink="http://www.w3.org/1999/xlink"><style type="text/css">
	.st0{fill:#F1F2F4;}
	.st1{fill:#464C54;}
	.st2{fill:#C9C9C9;}
	.st3{fill:#F6CA47;}
	.st4{fill:#BFCC58;}
	.st5{fill:#FFFFFF;}
	.st6{fill:#627148;}
	.st7{fill:#0076B9;}
	.st8{fill:#00A6E4;}
	.st9{fill:none;stroke:#FFFFFF;stroke-width:6;stroke-linecap:round;stroke-linejoin:round;stroke-miterlimit:10;}
	.st10{fill:#464C54;stroke:#464C54;stroke-width:6;stroke-linecap:round;stroke-linejoin:round;stroke-miterlimit:10;}
	.st11{fill:#E8E8E8;}
	.st12{fill:#D65B36;}
	.st13{fill:#D65B4D;}
	.st14{fill:none;stroke:#464C54;stroke-width:6;stroke-linecap:round;stroke-linejoin:round;stroke-miterlimit:10;}
</style><path class="st0" d="M64,119c-28.63,0-42.66-0.26-48.74-6.04c-5.99-5.7-6.26-18.98-6.26-46.09c0-30.11,0.27-44.86,6.42-51.28  C21.44,9.31,35.44,9.04,64,9.04s42.56,0.28,48.57,6.56c6.15,6.42,6.42,21.17,6.42,51.28c0,27.17-0.27,40.48-6.25,46.16  C106.44,119,90.47,119,64,119z"/><g><g><path class="st3" d="M88,55v-8h-8c-8.84,0-16,7.16-16,16c0-8.84-7.16-16-16-16h-8v8c0,8.84,7.16,16,16,16c0,0-4.59,0-8,0h-3    c-2.76,0-5,2.24-5,5v3c0,8.84,7.16,16,16,16c0,0-4.59,0-8,0h-3c-2.76,0-5,2.24-5,5v3c0,8.84,7.16,16,16,16h8h8    c8.84,0,16-7.16,16-16v-3c0-2.76-2.24-5-5-5h-3c-3.41,0-8,0-8,0c8.84,0,16-7.16,16-16v-3c0-2.76-2.24-5-5-5h-3c-3.41,0-8,0-8,0    C80.84,71,88,63.84,88,55z"/></g><g><path class="st1" d="M50,37c-1.66,0-3-1.34-3-3V14c0-1.66,1.34-3,3-3s3,1.34,3,3v20C53,35.66,51.66,37,50,37z"/></g><g><path class="st1" d="M78,37c-1.66,0-3-1.34-3-3V14c0-1.66,1.34-3,3-3s3,1.34,3,3v20C81,35.66,79.66,37,78,37z"/></g><path class="st1" d="M72,74c10.48,0,19-8.52,19-19v-8c0-1.66-1.34-3-3-3h-8c-5.03,0-9.6,1.98-13,5.18V4c0-1.66-1.34-3-3-3   s-3,1.34-3,3v45.18C57.6,45.98,53.03,44,48,44h-8c-1.66,0-3,1.34-3,3v8c0,10.48,8.52,19,19,19h5v18h-5c-7.17,0-13-5.83-13-13v-3   c0-1.66-1.34-3-3-3s-3,1.34-3,3v3c0,10.48,8.52,19,19,19h5v18h-5c-7.17,0-13-5.83-13-13v-2c0-1.66-1.34-3-3-3s-3,1.34-3,3v2   c0,10.48,8.52,19,19,19h5v2c0,1.66,1.34,3,3,3s3-1.34,3-3v-2h5c10.48,0,19-8.52,19-19v-3c0-1.66-1.34-3-3-3s-3,1.34-3,3v3   c0,7.17-5.83,13-13,13h-5V98h5c10.48,0,19-8.52,19-19v-3c0-1.66-1.34-3-3-3s-3,1.34-3,3v3c0,7.17-5.83,13-13,13h-5V74H72z M80,50h5   v5c0,7.17-5.83,13-13,13h-5v-5C67,55.83,72.83,50,80,50z M43,55v-5h5c7.17,0,13,5.83,13,13v5h-5C48.83,68,43,62.17,43,55z"/></g></svg>